<svg width="970" height="97" viewBox="0 0 970 97" fill="none" xmlns="http://www.w3.org/2000/svg">
<path d="M15.7273 1.90909H40L55.3182 64.4545H56.4091L92.3636 1.90909H116.636L101.182 95H82.0909L92.1818 34.4091H91.3636L57.3636 94.5455H44.3182L30.3182 34.1818H29.5455L19.3636 95H0.272727L15.7273 1.90909ZM190.352 1.90909H210.034L200.034 62.3636C198.913 69.1515 196.322 75.0909 192.261 80.1818C188.201 85.2727 183.034 89.2424 176.761 92.0909C170.489 94.9091 163.489 96.3182 155.761 96.3182C148.034 96.3182 141.519 94.9091 136.216 92.0909C130.913 89.2424 127.08 85.2727 124.716 80.1818C122.352 75.0909 121.731 69.1515 122.852 62.3636L132.852 1.90909H152.534L142.761 60.6818C142.216 64.2273 142.489 67.3788 143.58 70.1364C144.701 72.8939 146.549 75.0606 149.125 76.6364C151.701 78.2121 154.883 79 158.67 79C162.489 79 165.943 78.2121 169.034 76.6364C172.155 75.0606 174.716 72.8939 176.716 70.1364C178.746 67.3788 180.034 64.2273 180.58 60.6818L190.352 1.90909ZM272.182 28.9545C272.333 25.1667 271.227 22.2424 268.864 20.1818C266.53 18.1212 263 17.0909 258.273 17.0909C255.061 17.0909 252.273 17.5455 249.909 18.4545C247.545 19.3333 245.652 20.5606 244.227 22.1364C242.833 23.6818 241.97 25.4697 241.636 27.5C241.303 29.1667 241.409 30.6212 241.955 31.8636C242.53 33.1061 243.424 34.1818 244.636 35.0909C245.879 35.9697 247.348 36.7424 249.045 37.4091C250.742 38.0455 252.545 38.5909 254.455 39.0455L262.455 41.0455C266.364 41.9545 269.879 43.1667 273 44.6818C276.152 46.197 278.788 48.0606 280.909 50.2727C283.061 52.4848 284.576 55.0909 285.455 58.0909C286.333 61.0909 286.455 64.5303 285.818 68.4091C284.848 74.1061 282.591 79.0455 279.045 83.2273C275.5 87.3788 270.848 90.6061 265.091 92.9091C259.333 95.1818 252.667 96.3182 245.091 96.3182C237.576 96.3182 231.227 95.1667 226.045 92.8636C220.864 90.5606 217.091 87.1515 214.727 82.6364C212.394 78.0909 211.697 72.4697 212.636 65.7727H231.682C231.348 68.8939 231.803 71.5 233.045 73.5909C234.318 75.6515 236.212 77.2121 238.727 78.2727C241.242 79.303 244.197 79.8182 247.591 79.8182C250.955 79.8182 253.939 79.3333 256.545 78.3636C259.182 77.3939 261.318 76.0455 262.955 74.3182C264.591 72.5909 265.591 70.6061 265.955 68.3636C266.318 66.2727 266 64.5152 265 63.0909C264 61.6667 262.394 60.4545 260.182 59.4545C258 58.4242 255.288 57.5151 252.045 56.7273L242.318 54.1818C234.803 52.2727 229.121 49.2879 225.273 45.2273C221.424 41.1667 220.045 35.697 221.136 28.8182C222.106 23.1818 224.455 18.2576 228.182 14.0455C231.939 9.80303 236.667 6.51515 242.364 4.18182C248.091 1.81818 254.348 0.63636 261.136 0.63636C268.045 0.63636 273.879 1.83333 278.636 4.22727C283.394 6.59091 286.864 9.89394 289.045 14.1364C291.227 18.3788 291.894 23.3182 291.045 28.9545H272.182ZM329.784 1.90909L314.33 95H294.648L310.102 1.90909H329.784ZM330.523 95L345.977 1.90909H407.614L404.886 18.1364H362.932L359.295 40.3182H397.159L394.432 56.5455H356.568L350.205 95H330.523ZM405.398 95L420.852 1.90909H482.489L479.761 18.1364H437.807L434.17 40.3182H472.034L469.307 56.5455H431.443L425.08 95H405.398ZM480.273 95L495.727 1.90909H558.455L555.727 18.1364H512.682L509.045 40.3182H548.864L546.136 56.5455H506.318L502.682 78.7727H545.909L543.182 95H480.273ZM650.739 34.5H631.102C631.163 31.8939 630.83 29.5909 630.102 27.5909C629.375 25.5606 628.284 23.8333 626.83 22.4091C625.405 20.9848 623.663 19.9091 621.602 19.1818C619.542 18.4242 617.223 18.0455 614.648 18.0455C609.678 18.0455 605.117 19.2879 600.966 21.7727C596.814 24.2576 593.314 27.8636 590.466 32.5909C587.617 37.2879 585.648 42.9697 584.557 49.6364C583.496 56.0606 583.557 61.4394 584.739 65.7727C585.92 70.1061 588.011 73.3788 591.011 75.5909C594.042 77.7727 597.814 78.8636 602.33 78.8636C605.117 78.8636 607.769 78.5152 610.284 77.8182C612.799 77.0909 615.087 76.0606 617.148 74.7273C619.239 73.3636 621.057 71.7121 622.602 69.7727C624.178 67.8333 625.405 65.6364 626.284 63.1818H646.057C644.814 67.4545 642.875 71.5758 640.239 75.5455C637.633 79.5152 634.405 83.0606 630.557 86.1818C626.708 89.2727 622.33 91.7273 617.42 93.5455C612.511 95.3636 607.133 96.2727 601.284 96.2727C592.83 96.2727 585.572 94.3333 579.511 90.4545C573.481 86.5758 569.133 80.9848 566.466 73.6818C563.799 66.3788 563.299 57.5758 564.966 47.2727C566.633 37.303 569.89 28.8485 574.739 21.9091C579.617 14.9394 585.542 9.65151 592.511 6.04545C599.511 2.43939 606.996 0.63636 614.966 0.63636C620.511 0.63636 625.527 1.39394 630.011 2.90909C634.496 4.42424 638.314 6.63636 641.466 9.54545C644.648 12.4242 647.042 15.9545 648.648 20.1364C650.254 24.3182 650.951 29.1061 650.739 34.5ZM664.08 18.1364L666.807 1.90909H743.261L740.534 18.1364H712.034L699.307 95H679.852L692.58 18.1364H664.08ZM775.534 1.90909L760.08 95H740.398L755.852 1.90909H775.534ZM869.364 49.7273C867.667 59.6667 864.379 68.1061 859.5 75.0455C854.652 81.9848 848.727 87.2576 841.727 90.8636C834.758 94.4697 827.242 96.2727 819.182 96.2727C810.727 96.2727 803.439 94.3485 797.318 90.5C791.227 86.6515 786.818 81.0909 784.091 73.8182C781.364 66.5152 780.848 57.7121 782.545 47.4091C784.182 37.4394 787.439 28.9848 792.318 22.0455C797.197 15.0758 803.152 9.77272 810.182 6.13636C817.212 2.46969 824.773 0.63636 832.864 0.63636C841.258 0.63636 848.5 2.57575 854.591 6.45454C860.712 10.3333 865.121 15.9394 867.818 23.2727C870.545 30.5758 871.061 39.3939 869.364 49.7273ZM849.773 47.4091C850.833 41.0151 850.788 35.6515 849.636 31.3182C848.515 26.9545 846.455 23.6515 843.455 21.4091C840.455 19.1667 836.667 18.0455 832.091 18.0455C827.121 18.0455 822.561 19.2879 818.409 21.7727C814.288 24.2576 810.803 27.8636 807.955 32.5909C805.136 37.2879 803.182 43 802.091 49.7273C801 56.1515 801.03 61.5152 802.182 65.8182C803.364 70.1212 805.47 73.3788 808.5 75.5909C811.561 77.7727 815.364 78.8636 819.909 78.8636C824.848 78.8636 829.364 77.6515 833.455 75.2273C837.576 72.7727 841.045 69.2121 843.864 64.5455C846.682 59.8485 848.652 54.1364 849.773 47.4091ZM969.716 1.90909L954.261 95H937.261L906.58 36.4091H905.852L896.08 95H876.398L891.852 1.90909H909.125L939.67 60.4545H940.443L950.125 1.90909H969.716Z" fill="url(#paint0_linear_23_15)"/>
<defs>
<linearGradient id="paint0_linear_23_15" x1="486.5" y1="-29" x2="486.5" y2="108" gradientUnits="userSpaceOnUse">
<stop/>
<stop offset="0.588542"/>
<stop offset="0.671875" stop-opacity="0.8"/>
<stop offset="0.854167" stop-opacity="0.23"/>
<stop offset="0.916667" stop-opacity="0"/>
</linearGradient>
</defs>
</svg>
