<svg width="51" height="35" viewBox="0 0 51 35" fill="none" xmlns="http://www.w3.org/2000/svg">
<g filter="url(#filter0_d_301_2)">
<path d="M26.4122 14.3494C25.2514 15.1437 25.2514 16.8563 26.4122 17.6506L41.1206 27.715C42.4479 28.6233 44.25 27.6728 44.25 26.0645L44.25 5.93553C44.25 4.32717 42.4479 3.37669 41.1206 4.28496L26.4122 14.3494Z" fill="white"/>
</g>
<g filter="url(#filter1_d_301_2)">
<path d="M9.52997 14.3307C8.33195 15.1211 8.33195 16.8789 9.52997 17.6693L24.8985 27.81C26.2282 28.6873 28 27.7337 28 26.1406L28 5.85939C28 4.2663 26.2282 3.31266 24.8985 4.19004L9.52997 14.3307Z" fill="white"/>
</g>
<defs>
<filter id="filter0_d_301_2" x="17.5416" y="1.9321" width="26.7084" height="32.1358" filterUnits="userSpaceOnUse" color-interpolation-filters="sRGB">
<feFlood flood-opacity="0" result="BackgroundImageFix"/>
<feColorMatrix in="SourceAlpha" type="matrix" values="0 0 0 0 0 0 0 0 0 0 0 0 0 0 0 0 0 0 127 0" result="hardAlpha"/>
<feOffset dx="-4" dy="2"/>
<feGaussianBlur stdDeviation="2"/>
<feComposite in2="hardAlpha" operator="out"/>
<feColorMatrix type="matrix" values="0 0 0 0 0 0 0 0 0 0 0 0 0 0 0 0 0 0 0.5 0"/>
<feBlend mode="normal" in2="BackgroundImageFix" result="effect1_dropShadow_301_2"/>
<feBlend mode="normal" in="SourceGraphic" in2="effect1_dropShadow_301_2" result="shape"/>
</filter>
<filter id="filter1_d_301_2" x="0.63147" y="1.85605" width="27.3685" height="32.2879" filterUnits="userSpaceOnUse" color-interpolation-filters="sRGB">
<feFlood flood-opacity="0" result="BackgroundImageFix"/>
<feColorMatrix in="SourceAlpha" type="matrix" values="0 0 0 0 0 0 0 0 0 0 0 0 0 0 0 0 0 0 127 0" result="hardAlpha"/>
<feOffset dx="-4" dy="2"/>
<feGaussianBlur stdDeviation="2"/>
<feComposite in2="hardAlpha" operator="out"/>
<feColorMatrix type="matrix" values="0 0 0 0 0 0 0 0 0 0 0 0 0 0 0 0 0 0 0.5 0"/>
<feBlend mode="normal" in2="BackgroundImageFix" result="effect1_dropShadow_301_2"/>
<feBlend mode="normal" in="SourceGraphic" in2="effect1_dropShadow_301_2" result="shape"/>
</filter>
</defs>
</svg>
