<svg width="48" height="35" viewBox="0 0 48 35" fill="none" xmlns="http://www.w3.org/2000/svg">
<g filter="url(#filter0_d_301_3)">
<path d="M25.47 14.3307C26.668 15.1211 26.668 16.8789 25.47 17.6693L10.1015 27.81C8.77177 28.6873 7 27.7337 7 26.1406L7 5.85939C7 4.2663 8.77177 3.31266 10.1015 4.19004L25.47 14.3307Z" fill="white"/>
</g>
<g filter="url(#filter1_d_301_3)">
<path d="M38.47 14.3307C39.668 15.1211 39.668 16.8789 38.47 17.6693L23.1015 27.81C21.7718 28.6873 20 27.7337 20 26.1406L20 5.85939C20 4.2663 21.7718 3.31266 23.1015 4.19004L38.47 14.3307Z" fill="white"/>
</g>
<defs>
<filter id="filter0_d_301_3" x="7" y="1.85605" width="27.3685" height="32.2879" filterUnits="userSpaceOnUse" color-interpolation-filters="sRGB">
<feFlood flood-opacity="0" result="BackgroundImageFix"/>
<feColorMatrix in="SourceAlpha" type="matrix" values="0 0 0 0 0 0 0 0 0 0 0 0 0 0 0 0 0 0 127 0" result="hardAlpha"/>
<feOffset dx="4" dy="2"/>
<feGaussianBlur stdDeviation="2"/>
<feComposite in2="hardAlpha" operator="out"/>
<feColorMatrix type="matrix" values="0 0 0 0 0 0 0 0 0 0 0 0 0 0 0 0 0 0 0.5 0"/>
<feBlend mode="normal" in2="BackgroundImageFix" result="effect1_dropShadow_301_3"/>
<feBlend mode="normal" in="SourceGraphic" in2="effect1_dropShadow_301_3" result="shape"/>
</filter>
<filter id="filter1_d_301_3" x="20" y="1.85605" width="27.3685" height="32.2879" filterUnits="userSpaceOnUse" color-interpolation-filters="sRGB">
<feFlood flood-opacity="0" result="BackgroundImageFix"/>
<feColorMatrix in="SourceAlpha" type="matrix" values="0 0 0 0 0 0 0 0 0 0 0 0 0 0 0 0 0 0 127 0" result="hardAlpha"/>
<feOffset dx="4" dy="2"/>
<feGaussianBlur stdDeviation="2"/>
<feComposite in2="hardAlpha" operator="out"/>
<feColorMatrix type="matrix" values="0 0 0 0 0 0 0 0 0 0 0 0 0 0 0 0 0 0 0.5 0"/>
<feBlend mode="normal" in2="BackgroundImageFix" result="effect1_dropShadow_301_3"/>
<feBlend mode="normal" in="SourceGraphic" in2="effect1_dropShadow_301_3" result="shape"/>
</filter>
</defs>
</svg>
